<mxfile host="app.diagrams.net" agent="Mozilla/5.0 (Windows NT 10.0; Win64; x64; rv:139.0) Gecko/20100101 Firefox/139.0" version="28.2.3">
  <diagram name="Страница — 1" id="VJM2AuPIefYYTYtJUDaH">
    <mxGraphModel dx="2219" dy="747" grid="1" gridSize="10" guides="1" tooltips="1" connect="1" arrows="1" fold="1" page="1" pageScale="1" pageWidth="827" pageHeight="1169" math="0" shadow="0">
      <root>
        <mxCell id="0" />
        <mxCell id="1" parent="0" />
        <UserObject label="" plantUmlData="{&#xa;  &quot;data&quot;: &quot;@startuml\ntitle Архитектура приложения\n\nskinparam defaultFontName Arial\nskinparam defaultFontSize 14\nskinparam rectangle {\n  BorderColor Black\n  BackgroundColor White\n  RoundCorner 10\n  Padding 5\n  MinimumWidth 200\n  MaximumWidth 200\n}\n\ntop to bottom direction\n\nactor \&quot;Пользователь\&quot; as user\n\npackage \&quot;Интерфейс\&quot; {\n    rectangle \&quot;UI модуль\&quot;\n}\n\npackage \&quot;Управление\&quot; {\n    rectangle \&quot;Модуль выбора метода\&quot;\n    rectangle \&quot;Модуль запуска оптимизации\&quot;\n}\n\npackage \&quot;Алгоритмы\&quot; {\n    rectangle \&quot;Метод Ньютона\&quot;\n    rectangle \&quot;Метод секущих\&quot;\n    rectangle \&quot;Метод золотого сечения\&quot;\n    rectangle \&quot;Метод дихотомии\&quot;\n    rectangle \&quot;Пассивный поиск\&quot;\n}\n\npackage \&quot;Визуализация\&quot; {\n    rectangle \&quot;Построение графика\&quot;\n    rectangle \&quot;Отображение истории итераций\&quot;\n}\n\nuser -down-&gt; \&quot;UI модуль\&quot;\n\&quot;UI модуль\&quot; -down-&gt; \&quot;Модуль выбора метода\&quot;\n\&quot;Модуль выбора метода\&quot; -down-&gt; \&quot;Модуль запуска оптимизации\&quot;\n\&quot;Модуль запуска оптимизации\&quot; -down-&gt; \&quot;Метод Ньютона\&quot;\n\&quot;Модуль запуска оптимизации\&quot; -down-&gt; \&quot;Метод секущих\&quot;\n\&quot;Модуль запуска оптимизации\&quot; -down-&gt; \&quot;Метод золотого сечения\&quot;\n\&quot;Модуль запуска оптимизации\&quot; -down-&gt; \&quot;Метод дихотомии\&quot;\n\&quot;Модуль запуска оптимизации\&quot; -down-&gt; \&quot;Пассивный поиск\&quot;\n\&quot;Метод Ньютона\&quot; -down-&gt; \&quot;Построение графика\&quot;\n\&quot;Метод секущих\&quot; -down-&gt; \&quot;Построение графика\&quot;\n\&quot;Метод золотого сечения\&quot; -down-&gt; \&quot;Построение графика\&quot;\n\&quot;Метод дихотомии\&quot; -down-&gt; \&quot;Построение графика\&quot;\n\&quot;Пассивный поиск\&quot; -down-&gt; \&quot;Построение графика\&quot;\n\&quot;Построение графика\&quot; -down-&gt; \&quot;Отображение истории итераций\&quot;\n\&quot;Отображение истории итераций\&quot; -down-&gt; \&quot;UI модуль\&quot;\n@enduml\n\n&quot;,&#xa;  &quot;format&quot;: &quot;svg&quot;&#xa;}" id="uAlbVnMMJaa76xt25_W9-15">
          <mxCell style="shape=image;noLabel=1;verticalAlign=top;aspect=fixed;imageAspect=0;image=data:image/svg+xml,PHN2ZyB4bWxucz0iaHR0cDovL3d3dy53My5vcmcvMjAwMC9zdmciIHhtbG5zOnhsaW5rPSJodHRwOi8vd3d3LnczLm9yZy8xOTk5L3hsaW5rIiBjb250ZW50U3R5bGVUeXBlPSJ0ZXh0L2NzcyIgZGF0YS1kaWFncmFtLXR5cGU9IkRFU0NSSVBUSU9OIiBoZWlnaHQ9Ijc0OHB4IiBwcmVzZXJ2ZUFzcGVjdFJhdGlvPSJub25lIiBzdHlsZT0id2lkdGg6ODcwcHg7aGVpZ2h0Ojc0OHB4O2JhY2tncm91bmQ6I0ZGRkZGRjsiIHZlcnNpb249IjEuMSIgdmlld0JveD0iMCAwIDg3MCA3NDgiIHdpZHRoPSI4NzBweCIgem9vbUFuZFBhbj0ibWFnbmlmeSI+PHRpdGxlPiYjMTA0MDsmIzEwODg7JiMxMDkzOyYjMTA4MDsmIzEwOTA7JiMxMDc3OyYjMTA4MjsmIzEwOTA7JiMxMDkxOyYjMTA4ODsmIzEwNzI7ICYjMTA4NzsmIzEwODg7JiMxMDgwOyYjMTA4MzsmIzEwODY7JiMxMDc4OyYjMTA3NzsmIzEwODU7JiMxMDgwOyYjMTEwMzs8L3RpdGxlPjxkZWZzLz48Zz48dGV4dCBmaWxsPSIjMDAwMDAwIiBmb250LWZhbWlseT0iQXJpYWwiIGZvbnQtc2l6ZT0iMTQiIGZvbnQtd2VpZ2h0PSJib2xkIiBsZW5ndGhBZGp1c3Q9InNwYWNpbmciIHRleHRMZW5ndGg9IjE1NCIgeD0iMzUxIiB5PSIyMy4yMzQ0Ij4mIzEwNDA7JiMxMDg4OyYjMTA5MzsmIzEwODA7JiMxMDkwOyYjMTA3NzsmIzEwODI7JiMxMDkwOyYjMTA5MTsmIzEwODg7JiMxMDcyOyAmIzEwODc7JiMxMDg4OyYjMTA4MDsmIzEwODM7JiMxMDg2OyYjMTA3ODsmIzEwNzc7JiMxMDg1OyYjMTA4MDsmIzExMDM7PC90ZXh0PjwhLS1jbHVzdGVyID8/Pz8/Pz8/Py0tPjxnIGNsYXNzPSJjbHVzdGVyIiBkYXRhLWVudGl0eT0iJiMxMDQ4OyYjMTA4NTsmIzEwOTA7JiMxMDc3OyYjMTA4ODsmIzEwOTI7JiMxMDc3OyYjMTA4MTsmIzEwODk7IiBkYXRhLXNvdXJjZS1saW5lPSIxOCIgZGF0YS11aWQ9ImVudDAwMDMiIGlkPSJjbHVzdGVyXyYjMTA0ODsmIzEwODU7JiMxMDkwOyYjMTA3NzsmIzEwODg7JiMxMDkyOyYjMTA3NzsmIzEwODE7JiMxMDg5OyI+PHBhdGggZD0iTTYzNi41LDE0My40ODQ0IEw3MDAuNSwxNDMuNDg0NCBBMy43NSwzLjc1IDAgMCAxIDcwMywxNDUuOTg0NCBMNzEwLDE2NC40Njg4IEw3NDcuNSwxNjQuNDY4OCBBMi41LDIuNSAwIDAgMSA3NTAsMTY2Ljk2ODggTDc1MCwyMjQuOTg0NCBBMi41LDIuNSAwIDAgMSA3NDcuNSwyMjcuNDg0NCBMNjM2LjUsMjI3LjQ4NDQgQTIuNSwyLjUgMCAwIDEgNjM0LDIyNC45ODQ0IEw2MzQsMTQ1Ljk4NDQgQTIuNSwyLjUgMCAwIDEgNjM2LjUsMTQzLjQ4NDQiIGZpbGw9Im5vbmUiIHN0eWxlPSJzdHJva2U6IzAwMDAwMDtzdHJva2Utd2lkdGg6MS41OyIvPjxsaW5lIHN0eWxlPSJzdHJva2U6IzAwMDAwMDtzdHJva2Utd2lkdGg6MS41OyIgeDE9IjYzNCIgeDI9IjcxMCIgeTE9IjE2NC40Njg4IiB5Mj0iMTY0LjQ2ODgiLz48dGV4dCBmaWxsPSIjMDAwMDAwIiBmb250LWZhbWlseT0iQXJpYWwiIGZvbnQtc2l6ZT0iMTQiIGZvbnQtd2VpZ2h0PSJib2xkIiBsZW5ndGhBZGp1c3Q9InNwYWNpbmciIHRleHRMZW5ndGg9IjYzIiB4PSI2MzgiIHk9IjE1OC43MTg4Ij4mIzEwNDg7JiMxMDg1OyYjMTA5MDsmIzEwNzc7JiMxMDg4OyYjMTA5MjsmIzEwNzc7JiMxMDgxOyYjMTA4OTs8L3RleHQ+PC9nPjwhLS1jbHVzdGVyID8/Pz8/Pz8/Pz8tLT48ZyBjbGFzcz0iY2x1c3RlciIgZGF0YS1lbnRpdHk9IiYjMTA1OTsmIzEwODc7JiMxMDg4OyYjMTA3MjsmIzEwNzQ7JiMxMDgzOyYjMTA3NzsmIzEwODU7JiMxMDgwOyYjMTA3NzsiIGRhdGEtc291cmNlLWxpbmU9IjIyIiBkYXRhLXVpZD0iZW50MDAwNSIgaWQ9ImNsdXN0ZXJfJiMxMDU5OyYjMTA4NzsmIzEwODg7JiMxMDcyOyYjMTA3NDsmIzEwODM7JiMxMDc3OyYjMTA4NTsmIzEwODA7JiMxMDc3OyI+PHBhdGggZD0iTTM5OS41LDI1MS40ODQ0IEw0NzAuNSwyNTEuNDg0NCBBMy43NSwzLjc1IDAgMCAxIDQ3MywyNTMuOTg0NCBMNDgwLDI3Mi40Njg4IEw2MjguNSwyNzIuNDY4OCBBMi41LDIuNSAwIDAgMSA2MzEsMjc0Ljk2ODggTDYzMSw0MjcuOTg0NCBBMi41LDIuNSAwIDAgMSA2MjguNSw0MzAuNDg0NCBMMzk5LjUsNDMwLjQ4NDQgQTIuNSwyLjUgMCAwIDEgMzk3LDQyNy45ODQ0IEwzOTcsMjUzLjk4NDQgQTIuNSwyLjUgMCAwIDEgMzk5LjUsMjUxLjQ4NDQiIGZpbGw9Im5vbmUiIHN0eWxlPSJzdHJva2U6IzAwMDAwMDtzdHJva2Utd2lkdGg6MS41OyIvPjxsaW5lIHN0eWxlPSJzdHJva2U6IzAwMDAwMDtzdHJva2Utd2lkdGg6MS41OyIgeDE9IjM5NyIgeDI9IjQ4MCIgeTE9IjI3Mi40Njg4IiB5Mj0iMjcyLjQ2ODgiLz48dGV4dCBmaWxsPSIjMDAwMDAwIiBmb250LWZhbWlseT0iQXJpYWwiIGZvbnQtc2l6ZT0iMTQiIGZvbnQtd2VpZ2h0PSJib2xkIiBsZW5ndGhBZGp1c3Q9InNwYWNpbmciIHRleHRMZW5ndGg9IjcwIiB4PSI0MDEiIHk9IjI2Ni43MTg4Ij4mIzEwNTk7JiMxMDg3OyYjMTA4ODsmIzEwNzI7JiMxMDc0OyYjMTA4MzsmIzEwNzc7JiMxMDg1OyYjMTA4MDsmIzEwNzc7PC90ZXh0PjwvZz48IS0tY2x1c3RlciA/Pz8/Pz8/Pz8tLT48ZyBjbGFzcz0iY2x1c3RlciIgZGF0YS1lbnRpdHk9IiYjMTA0MDsmIzEwODM7JiMxMDc1OyYjMTA4NjsmIzEwODg7JiMxMDgwOyYjMTA5MDsmIzEwODQ7JiMxMDk5OyIgZGF0YS1zb3VyY2UtbGluZT0iMjciIGRhdGEtdWlkPSJlbnQwMDA4IiBpZD0iY2x1c3Rlcl8mIzEwNDA7JiMxMDgzOyYjMTA3NTsmIzEwODY7JiMxMDg4OyYjMTA4MDsmIzEwOTA7JiMxMDg0OyYjMTA5OTsiPjxwYXRoIGQ9Ik04LjUsNDU0LjQ4NDQgTDcyLjUsNDU0LjQ4NDQgQTMuNzUsMy43NSAwIDAgMSA3NSw0NTYuOTg0NCBMODIsNDc1LjQ2ODggTDgyMi41LDQ3NS40Njg4IEEyLjUsMi41IDAgMCAxIDgyNSw0NzcuOTY4OCBMODI1LDUzNS45ODQ0IEEyLjUsMi41IDAgMCAxIDgyMi41LDUzOC40ODQ0IEw4LjUsNTM4LjQ4NDQgQTIuNSwyLjUgMCAwIDEgNiw1MzUuOTg0NCBMNiw0NTYuOTg0NCBBMi41LDIuNSAwIDAgMSA4LjUsNDU0LjQ4NDQiIGZpbGw9Im5vbmUiIHN0eWxlPSJzdHJva2U6IzAwMDAwMDtzdHJva2Utd2lkdGg6MS41OyIvPjxsaW5lIHN0eWxlPSJzdHJva2U6IzAwMDAwMDtzdHJva2Utd2lkdGg6MS41OyIgeDE9IjYiIHgyPSI4MiIgeTE9IjQ3NS40Njg4IiB5Mj0iNDc1LjQ2ODgiLz48dGV4dCBmaWxsPSIjMDAwMDAwIiBmb250LWZhbWlseT0iQXJpYWwiIGZvbnQtc2l6ZT0iMTQiIGZvbnQtd2VpZ2h0PSJib2xkIiBsZW5ndGhBZGp1c3Q9InNwYWNpbmciIHRleHRMZW5ndGg9IjYzIiB4PSIxMCIgeT0iNDY5LjcxODgiPiYjMTA0MDsmIzEwODM7JiMxMDc1OyYjMTA4NjsmIzEwODg7JiMxMDgwOyYjMTA5MDsmIzEwODQ7JiMxMDk5OzwvdGV4dD48L2c+PCEtLWNsdXN0ZXIgPz8/Pz8/Pz8/Pz8/LS0+PGcgY2xhc3M9ImNsdXN0ZXIiIGRhdGEtZW50aXR5PSImIzEwNDI7JiMxMDgwOyYjMTA3OTsmIzEwOTE7JiMxMDcyOyYjMTA4MzsmIzEwODA7JiMxMDc5OyYjMTA3MjsmIzEwOTQ7JiMxMDgwOyYjMTEwMzsiIGRhdGEtc291cmNlLWxpbmU9IjM1IiBkYXRhLXVpZD0iZW50MDAxNCIgaWQ9ImNsdXN0ZXJfJiMxMDQyOyYjMTA4MDsmIzEwNzk7JiMxMDkxOyYjMTA3MjsmIzEwODM7JiMxMDgwOyYjMTA3OTsmIzEwNzI7JiMxMDk0OyYjMTA4MDsmIzExMDM7Ij48cGF0aCBkPSJNNDE1LjUsNTYyLjQ4NDQgTDUwMC41LDU2Mi40ODQ0IEEzLjc1LDMuNzUgMCAwIDEgNTAzLDU2NC45ODQ0IEw1MTAsNTgzLjQ2ODggTDY1OC41LDU4My40Njg4IEEyLjUsMi41IDAgMCAxIDY2MSw1ODUuOTY4OCBMNjYxLDczOC45ODQ0IEEyLjUsMi41IDAgMCAxIDY1OC41LDc0MS40ODQ0IEw0MTUuNSw3NDEuNDg0NCBBMi41LDIuNSAwIDAgMSA0MTMsNzM4Ljk4NDQgTDQxMyw1NjQuOTg0NCBBMi41LDIuNSAwIDAgMSA0MTUuNSw1NjIuNDg0NCIgZmlsbD0ibm9uZSIgc3R5bGU9InN0cm9rZTojMDAwMDAwO3N0cm9rZS13aWR0aDoxLjU7Ii8+PGxpbmUgc3R5bGU9InN0cm9rZTojMDAwMDAwO3N0cm9rZS13aWR0aDoxLjU7IiB4MT0iNDEzIiB4Mj0iNTEwIiB5MT0iNTgzLjQ2ODgiIHkyPSI1ODMuNDY4OCIvPjx0ZXh0IGZpbGw9IiMwMDAwMDAiIGZvbnQtZmFtaWx5PSJBcmlhbCIgZm9udC1zaXplPSIxNCIgZm9udC13ZWlnaHQ9ImJvbGQiIGxlbmd0aEFkanVzdD0ic3BhY2luZyIgdGV4dExlbmd0aD0iODQiIHg9IjQxNyIgeT0iNTc3LjcxODgiPiYjMTA0MjsmIzEwODA7JiMxMDc5OyYjMTA5MTsmIzEwNzI7JiMxMDgzOyYjMTA4MDsmIzEwNzk7JiMxMDcyOyYjMTA5NDsmIzEwODA7JiMxMTAzOzwvdGV4dD48L2c+PCEtLWVudGl0eSBVSSA/Pz8/Pz8tLT48ZyBjbGFzcz0iZW50aXR5IiBkYXRhLWVudGl0eT0iVUkgJiMxMDg0OyYjMTA4NjsmIzEwNzY7JiMxMDkxOyYjMTA4MzsmIzExMDA7IiBkYXRhLXNvdXJjZS1saW5lPSIxOSIgZGF0YS11aWQ9ImVudDAwMDQiIGlkPSJlbnRpdHlfVUkgJiMxMDg0OyYjMTA4NjsmIzEwNzY7JiMxMDkxOyYjMTA4MzsmIzExMDA7Ij48cmVjdCBmaWxsPSIjRkZGRkZGIiBoZWlnaHQ9IjM0Ljk4NDQiIHJ4PSI1IiByeT0iNSIgc3R5bGU9InN0cm9rZTojMDAwMDAwO3N0cm9rZS13aWR0aDowLjU7IiB3aWR0aD0iODMiIHg9IjY1MC41IiB5PSIxNzYuNDg0NCIvPjx0ZXh0IGZpbGw9IiMwMDAwMDAiIGZvbnQtZmFtaWx5PSJBcmlhbCIgZm9udC1zaXplPSIxNCIgbGVuZ3RoQWRqdXN0PSJzcGFjaW5nIiB0ZXh0TGVuZ3RoPSI2MyIgeD0iNjYwLjUiIHk9IjE5OS43MTg4Ij5VSSAmIzEwODQ7JiMxMDg2OyYjMTA3NjsmIzEwOTE7JiMxMDgzOyYjMTEwMDs8L3RleHQ+PC9nPjwhLS1lbnRpdHkgPz8/Pz8/ID8/Pz8/PyA/Pz8/Pz8tLT48ZyBjbGFzcz0iZW50aXR5IiBkYXRhLWVudGl0eT0iJiMxMDUyOyYjMTA4NjsmIzEwNzY7JiMxMDkxOyYjMTA4MzsmIzExMDA7ICYjMTA3NDsmIzEwOTk7JiMxMDczOyYjMTA4NjsmIzEwODg7JiMxMDcyOyAmIzEwODQ7JiMxMDc3OyYjMTA5MDsmIzEwODY7JiMxMDc2OyYjMTA3MjsiIGRhdGEtc291cmNlLWxpbmU9IjIzIiBkYXRhLXVpZD0iZW50MDAwNiIgaWQ9ImVudGl0eV8mIzEwNTI7JiMxMDg2OyYjMTA3NjsmIzEwOTE7JiMxMDgzOyYjMTEwMDsgJiMxMDc0OyYjMTA5OTsmIzEwNzM7JiMxMDg2OyYjMTA4ODsmIzEwNzI7ICYjMTA4NDsmIzEwNzc7JiMxMDkwOyYjMTA4NjsmIzEwNzY7JiMxMDcyOyI+PHJlY3QgZmlsbD0iI0ZGRkZGRiIgaGVpZ2h0PSIzNC45ODQ0IiByeD0iNSIgcnk9IjUiIHN0eWxlPSJzdHJva2U6IzAwMDAwMDtzdHJva2Utd2lkdGg6MC41OyIgd2lkdGg9IjE2MCIgeD0iNDQ0IiB5PSIyODQuNDg0NCIvPjx0ZXh0IGZpbGw9IiMwMDAwMDAiIGZvbnQtZmFtaWx5PSJBcmlhbCIgZm9udC1zaXplPSIxNCIgbGVuZ3RoQWRqdXN0PSJzcGFjaW5nIiB0ZXh0TGVuZ3RoPSIxNDAiIHg9IjQ1NCIgeT0iMzA3LjcxODgiPiYjMTA1MjsmIzEwODY7JiMxMDc2OyYjMTA5MTsmIzEwODM7JiMxMTAwOyAmIzEwNzQ7JiMxMDk5OyYjMTA3MzsmIzEwODY7JiMxMDg4OyYjMTA3MjsgJiMxMDg0OyYjMTA3NzsmIzEwOTA7JiMxMDg2OyYjMTA3NjsmIzEwNzI7PC90ZXh0PjwvZz48IS0tZW50aXR5ID8/Pz8/PyA/Pz8/Pz8/ID8/Pz8/Pz8/Pz8/LS0+PGcgY2xhc3M9ImVudGl0eSIgZGF0YS1lbnRpdHk9IiYjMTA1MjsmIzEwODY7JiMxMDc2OyYjMTA5MTsmIzEwODM7JiMxMTAwOyAmIzEwNzk7JiMxMDcyOyYjMTA4NzsmIzEwOTE7JiMxMDg5OyYjMTA4MjsmIzEwNzI7ICYjMTA4NjsmIzEwODc7JiMxMDkwOyYjMTA4MDsmIzEwODQ7JiMxMDgwOyYjMTA3OTsmIzEwNzI7JiMxMDk0OyYjMTA4MDsmIzEwODA7IiBkYXRhLXNvdXJjZS1saW5lPSIyNCIgZGF0YS11aWQ9ImVudDAwMDciIGlkPSJlbnRpdHlfJiMxMDUyOyYjMTA4NjsmIzEwNzY7JiMxMDkxOyYjMTA4MzsmIzExMDA7ICYjMTA3OTsmIzEwNzI7JiMxMDg3OyYjMTA5MTsmIzEwODk7JiMxMDgyOyYjMTA3MjsgJiMxMDg2OyYjMTA4NzsmIzEwOTA7JiMxMDgwOyYjMTA4NDsmIzEwODA7JiMxMDc5OyYjMTA3MjsmIzEwOTQ7JiMxMDgwOyYjMTA4MDsiPjxyZWN0IGZpbGw9IiNGRkZGRkYiIGhlaWdodD0iMzQuOTg0NCIgcng9IjUiIHJ5PSI1IiBzdHlsZT0ic3Ryb2tlOiMwMDAwMDA7c3Ryb2tlLXdpZHRoOjAuNTsiIHdpZHRoPSIyMDIiIHg9IjQxMyIgeT0iMzc5LjQ4NDQiLz48dGV4dCBmaWxsPSIjMDAwMDAwIiBmb250LWZhbWlseT0iQXJpYWwiIGZvbnQtc2l6ZT0iMTQiIGxlbmd0aEFkanVzdD0ic3BhY2luZyIgdGV4dExlbmd0aD0iMTgyIiB4PSI0MjMiIHk9IjQwMi43MTg4Ij4mIzEwNTI7JiMxMDg2OyYjMTA3NjsmIzEwOTE7JiMxMDgzOyYjMTEwMDsgJiMxMDc5OyYjMTA3MjsmIzEwODc7JiMxMDkxOyYjMTA4OTsmIzEwODI7JiMxMDcyOyAmIzEwODY7JiMxMDg3OyYjMTA5MDsmIzEwODA7JiMxMDg0OyYjMTA4MDsmIzEwNzk7JiMxMDcyOyYjMTA5NDsmIzEwODA7JiMxMDgwOzwvdGV4dD48L2c+PCEtLWVudGl0eSA/Pz8/PyA/Pz8/Pz8/LS0+PGcgY2xhc3M9ImVudGl0eSIgZGF0YS1lbnRpdHk9IiYjMTA1MjsmIzEwNzc7JiMxMDkwOyYjMTA4NjsmIzEwNzY7ICYjMTA1MzsmIzExMDA7JiMxMTAyOyYjMTA5MDsmIzEwODY7JiMxMDg1OyYjMTA3MjsiIGRhdGEtc291cmNlLWxpbmU9IjI4IiBkYXRhLXVpZD0iZW50MDAwOSIgaWQ9ImVudGl0eV8mIzEwNTI7JiMxMDc3OyYjMTA5MDsmIzEwODY7JiMxMDc2OyAmIzEwNTM7JiMxMTAwOyYjMTEwMjsmIzEwOTA7JiMxMDg2OyYjMTA4NTsmIzEwNzI7Ij48cmVjdCBmaWxsPSIjRkZGRkZGIiBoZWlnaHQ9IjM0Ljk4NDQiIHJ4PSI1IiByeT0iNSIgc3R5bGU9InN0cm9rZTojMDAwMDAwO3N0cm9rZS13aWR0aDowLjU7IiB3aWR0aD0iMTExIiB4PSI2OTguNSIgeT0iNDg3LjQ4NDQiLz48dGV4dCBmaWxsPSIjMDAwMDAwIiBmb250LWZhbWlseT0iQXJpYWwiIGZvbnQtc2l6ZT0iMTQiIGxlbmd0aEFkanVzdD0ic3BhY2luZyIgdGV4dExlbmd0aD0iOTEiIHg9IjcwOC41IiB5PSI1MTAuNzE4OCI+JiMxMDUyOyYjMTA3NzsmIzEwOTA7JiMxMDg2OyYjMTA3NjsgJiMxMDUzOyYjMTEwMDsmIzExMDI7JiMxMDkwOyYjMTA4NjsmIzEwODU7JiMxMDcyOzwvdGV4dD48L2c+PCEtLWVudGl0eSA/Pz8/PyA/Pz8/Pz8/LS0+PGcgY2xhc3M9ImVudGl0eSIgZGF0YS1lbnRpdHk9IiYjMTA1MjsmIzEwNzc7JiMxMDkwOyYjMTA4NjsmIzEwNzY7ICYjMTA4OTsmIzEwNzc7JiMxMDgyOyYjMTA5MTsmIzEwOTc7JiMxMDgwOyYjMTA5MzsiIGRhdGEtc291cmNlLWxpbmU9IjI5IiBkYXRhLXVpZD0iZW50MDAxMCIgaWQ9ImVudGl0eV8mIzEwNTI7JiMxMDc3OyYjMTA5MDsmIzEwODY7JiMxMDc2OyAmIzEwODk7JiMxMDc3OyYjMTA4MjsmIzEwOTE7JiMxMDk3OyYjMTA4MDsmIzEwOTM7Ij48cmVjdCBmaWxsPSIjRkZGRkZGIiBoZWlnaHQ9IjM0Ljk4NDQiIHJ4PSI1IiByeT0iNSIgc3R5bGU9InN0cm9rZTojMDAwMDAwO3N0cm9rZS13aWR0aDowLjU7IiB3aWR0aD0iMTExIiB4PSI1NTIuNSIgeT0iNDg3LjQ4NDQiLz48dGV4dCBmaWxsPSIjMDAwMDAwIiBmb250LWZhbWlseT0iQXJpYWwiIGZvbnQtc2l6ZT0iMTQiIGxlbmd0aEFkanVzdD0ic3BhY2luZyIgdGV4dExlbmd0aD0iOTEiIHg9IjU2Mi41IiB5PSI1MTAuNzE4OCI+JiMxMDUyOyYjMTA3NzsmIzEwOTA7JiMxMDg2OyYjMTA3NjsgJiMxMDg5OyYjMTA3NzsmIzEwODI7JiMxMDkxOyYjMTA5NzsmIzEwODA7JiMxMDkzOzwvdGV4dD48L2c+PCEtLWVudGl0eSA/Pz8/PyA/Pz8/Pz8/PyA/Pz8/Pz8/LS0+PGcgY2xhc3M9ImVudGl0eSIgZGF0YS1lbnRpdHk9IiYjMTA1MjsmIzEwNzc7JiMxMDkwOyYjMTA4NjsmIzEwNzY7ICYjMTA3OTsmIzEwODY7JiMxMDgzOyYjMTA4NjsmIzEwOTA7JiMxMDg2OyYjMTA3NTsmIzEwODY7ICYjMTA4OTsmIzEwNzc7JiMxMDk1OyYjMTA3NzsmIzEwODU7JiMxMDgwOyYjMTEwMzsiIGRhdGEtc291cmNlLWxpbmU9IjMwIiBkYXRhLXVpZD0iZW50MDAxMSIgaWQ9ImVudGl0eV8mIzEwNTI7JiMxMDc3OyYjMTA5MDsmIzEwODY7JiMxMDc2OyAmIzEwNzk7JiMxMDg2OyYjMTA4MzsmIzEwODY7JiMxMDkwOyYjMTA4NjsmIzEwNzU7JiMxMDg2OyAmIzEwODk7JiMxMDc3OyYjMTA5NTsmIzEwNzc7JiMxMDg1OyYjMTA4MDsmIzExMDM7Ij48cmVjdCBmaWxsPSIjRkZGRkZGIiBoZWlnaHQ9IjM0Ljk4NDQiIHJ4PSI1IiByeT0iNSIgc3R5bGU9InN0cm9rZTojMDAwMDAwO3N0cm9rZS13aWR0aDowLjU7IiB3aWR0aD0iMTc0IiB4PSIzNDMiIHk9IjQ4Ny40ODQ0Ii8+PHRleHQgZmlsbD0iIzAwMDAwMCIgZm9udC1mYW1pbHk9IkFyaWFsIiBmb250LXNpemU9IjE0IiBsZW5ndGhBZGp1c3Q9InNwYWNpbmciIHRleHRMZW5ndGg9IjE1NCIgeD0iMzUzIiB5PSI1MTAuNzE4OCI+JiMxMDUyOyYjMTA3NzsmIzEwOTA7JiMxMDg2OyYjMTA3NjsgJiMxMDc5OyYjMTA4NjsmIzEwODM7JiMxMDg2OyYjMTA5MDsmIzEwODY7JiMxMDc1OyYjMTA4NjsgJiMxMDg5OyYjMTA3NzsmIzEwOTU7JiMxMDc3OyYjMTA4NTsmIzEwODA7JiMxMTAzOzwvdGV4dD48L2c+PCEtLWVudGl0eSA/Pz8/PyA/Pz8/Pz8/Pz8tLT48ZyBjbGFzcz0iZW50aXR5IiBkYXRhLWVudGl0eT0iJiMxMDUyOyYjMTA3NzsmIzEwOTA7JiMxMDg2OyYjMTA3NjsgJiMxMDc2OyYjMTA4MDsmIzEwOTM7JiMxMDg2OyYjMTA5MDsmIzEwODY7JiMxMDg0OyYjMTA4MDsmIzEwODA7IiBkYXRhLXNvdXJjZS1saW5lPSIzMSIgZGF0YS11aWQ9ImVudDAwMTIiIGlkPSJlbnRpdHlfJiMxMDUyOyYjMTA3NzsmIzEwOTA7JiMxMDg2OyYjMTA3NjsgJiMxMDc2OyYjMTA4MDsmIzEwOTM7JiMxMDg2OyYjMTA5MDsmIzEwODY7JiMxMDg0OyYjMTA4MDsmIzEwODA7Ij48cmVjdCBmaWxsPSIjRkZGRkZGIiBoZWlnaHQ9IjM0Ljk4NDQiIHJ4PSI1IiByeT0iNSIgc3R5bGU9InN0cm9rZTojMDAwMDAwO3N0cm9rZS13aWR0aDowLjU7IiB3aWR0aD0iMTI1IiB4PSIxODIuNSIgeT0iNDg3LjQ4NDQiLz48dGV4dCBmaWxsPSIjMDAwMDAwIiBmb250LWZhbWlseT0iQXJpYWwiIGZvbnQtc2l6ZT0iMTQiIGxlbmd0aEFkanVzdD0ic3BhY2luZyIgdGV4dExlbmd0aD0iMTA1IiB4PSIxOTIuNSIgeT0iNTEwLjcxODgiPiYjMTA1MjsmIzEwNzc7JiMxMDkwOyYjMTA4NjsmIzEwNzY7ICYjMTA3NjsmIzEwODA7JiMxMDkzOyYjMTA4NjsmIzEwOTA7JiMxMDg2OyYjMTA4NDsmIzEwODA7JiMxMDgwOzwvdGV4dD48L2c+PCEtLWVudGl0eSA/Pz8/Pz8/Pz8gPz8/Pz8tLT48ZyBjbGFzcz0iZW50aXR5IiBkYXRhLWVudGl0eT0iJiMxMDU1OyYjMTA3MjsmIzEwODk7JiMxMDg5OyYjMTA4MDsmIzEwNzQ7JiMxMDg1OyYjMTA5OTsmIzEwODE7ICYjMTA4NzsmIzEwODY7JiMxMDgwOyYjMTA4OTsmIzEwODI7IiBkYXRhLXNvdXJjZS1saW5lPSIzMiIgZGF0YS11aWQ9ImVudDAwMTMiIGlkPSJlbnRpdHlfJiMxMDU1OyYjMTA3MjsmIzEwODk7JiMxMDg5OyYjMTA4MDsmIzEwNzQ7JiMxMDg1OyYjMTA5OTsmIzEwODE7ICYjMTA4NzsmIzEwODY7JiMxMDgwOyYjMTA4OTsmIzEwODI7Ij48cmVjdCBmaWxsPSIjRkZGRkZGIiBoZWlnaHQ9IjM0Ljk4NDQiIHJ4PSI1IiByeT0iNSIgc3R5bGU9InN0cm9rZTojMDAwMDAwO3N0cm9rZS13aWR0aDowLjU7IiB3aWR0aD0iMTI1IiB4PSIyMi41IiB5PSI0ODcuNDg0NCIvPjx0ZXh0IGZpbGw9IiMwMDAwMDAiIGZvbnQtZmFtaWx5PSJBcmlhbCIgZm9udC1zaXplPSIxNCIgbGVuZ3RoQWRqdXN0PSJzcGFjaW5nIiB0ZXh0TGVuZ3RoPSIxMDUiIHg9IjMyLjUiIHk9IjUxMC43MTg4Ij4mIzEwNTU7JiMxMDcyOyYjMTA4OTsmIzEwODk7JiMxMDgwOyYjMTA3NDsmIzEwODU7JiMxMDk5OyYjMTA4MTsgJiMxMDg3OyYjMTA4NjsmIzEwODA7JiMxMDg5OyYjMTA4Mjs8L3RleHQ+PC9nPjwhLS1lbnRpdHkgPz8/Pz8/Pz8/PyA/Pz8/Pz8/LS0+PGcgY2xhc3M9ImVudGl0eSIgZGF0YS1lbnRpdHk9IiYjMTA1NTsmIzEwODY7JiMxMDg5OyYjMTA5MDsmIzEwODg7JiMxMDg2OyYjMTA3NzsmIzEwODU7JiMxMDgwOyYjMTA3NzsgJiMxMDc1OyYjMTA4ODsmIzEwNzI7JiMxMDkyOyYjMTA4MDsmIzEwODI7JiMxMDcyOyIgZGF0YS1zb3VyY2UtbGluZT0iMzYiIGRhdGEtdWlkPSJlbnQwMDE1IiBpZD0iZW50aXR5XyYjMTA1NTsmIzEwODY7JiMxMDg5OyYjMTA5MDsmIzEwODg7JiMxMDg2OyYjMTA3NzsmIzEwODU7JiMxMDgwOyYjMTA3NzsgJiMxMDc1OyYjMTA4ODsmIzEwNzI7JiMxMDkyOyYjMTA4MDsmIzEwODI7JiMxMDcyOyI+PHJlY3QgZmlsbD0iI0ZGRkZGRiIgaGVpZ2h0PSIzNC45ODQ0IiByeD0iNSIgcnk9IjUiIHN0eWxlPSJzdHJva2U6IzAwMDAwMDtzdHJva2Utd2lkdGg6MC41OyIgd2lkdGg9IjE0NiIgeD0iNDQ2IiB5PSI1OTUuNDg0NCIvPjx0ZXh0IGZpbGw9IiMwMDAwMDAiIGZvbnQtZmFtaWx5PSJBcmlhbCIgZm9udC1zaXplPSIxNCIgbGVuZ3RoQWRqdXN0PSJzcGFjaW5nIiB0ZXh0TGVuZ3RoPSIxMjYiIHg9IjQ1NiIgeT0iNjE4LjcxODgiPiYjMTA1NTsmIzEwODY7JiMxMDg5OyYjMTA5MDsmIzEwODg7JiMxMDg2OyYjMTA3NzsmIzEwODU7JiMxMDgwOyYjMTA3NzsgJiMxMDc1OyYjMTA4ODsmIzEwNzI7JiMxMDkyOyYjMTA4MDsmIzEwODI7JiMxMDcyOzwvdGV4dD48L2c+PCEtLWVudGl0eSA/Pz8/Pz8/Pz8/PyA/Pz8/Pz8/ID8/Pz8/Pz8/LS0+PGcgY2xhc3M9ImVudGl0eSIgZGF0YS1lbnRpdHk9IiYjMTA1NDsmIzEwOTA7JiMxMDg2OyYjMTA3MzsmIzEwODg7JiMxMDcyOyYjMTA3ODsmIzEwNzc7JiMxMDg1OyYjMTA4MDsmIzEwNzc7ICYjMTA4MDsmIzEwODk7JiMxMDkwOyYjMTA4NjsmIzEwODg7JiMxMDgwOyYjMTA4MDsgJiMxMDgwOyYjMTA5MDsmIzEwNzc7JiMxMDg4OyYjMTA3MjsmIzEwOTQ7JiMxMDgwOyYjMTA4MTsiIGRhdGEtc291cmNlLWxpbmU9IjM3IiBkYXRhLXVpZD0iZW50MDAxNiIgaWQ9ImVudGl0eV8mIzEwNTQ7JiMxMDkwOyYjMTA4NjsmIzEwNzM7JiMxMDg4OyYjMTA3MjsmIzEwNzg7JiMxMDc3OyYjMTA4NTsmIzEwODA7JiMxMDc3OyAmIzEwODA7JiMxMDg5OyYjMTA5MDsmIzEwODY7JiMxMDg4OyYjMTA4MDsmIzEwODA7ICYjMTA4MDsmIzEwOTA7JiMxMDc3OyYjMTA4ODsmIzEwNzI7JiMxMDk0OyYjMTA4MDsmIzEwODE7Ij48cmVjdCBmaWxsPSIjRkZGRkZGIiBoZWlnaHQ9IjM0Ljk4NDQiIHJ4PSI1IiByeT0iNSIgc3R5bGU9InN0cm9rZTojMDAwMDAwO3N0cm9rZS13aWR0aDowLjU7IiB3aWR0aD0iMjE2IiB4PSI0MjkiIHk9IjY5MC40ODQ0Ii8+PHRleHQgZmlsbD0iIzAwMDAwMCIgZm9udC1mYW1pbHk9IkFyaWFsIiBmb250LXNpemU9IjE0IiBsZW5ndGhBZGp1c3Q9InNwYWNpbmciIHRleHRMZW5ndGg9IjE5NiIgeD0iNDM5IiB5PSI3MTMuNzE4OCI+JiMxMDU0OyYjMTA5MDsmIzEwODY7JiMxMDczOyYjMTA4ODsmIzEwNzI7JiMxMDc4OyYjMTA3NzsmIzEwODU7JiMxMDgwOyYjMTA3NzsgJiMxMDgwOyYjMTA4OTsmIzEwOTA7JiMxMDg2OyYjMTA4ODsmIzEwODA7JiMxMDgwOyAmIzEwODA7JiMxMDkwOyYjMTA3NzsmIzEwODg7JiMxMDcyOyYjMTA5NDsmIzEwODA7JiMxMDgxOzwvdGV4dD48L2c+PCEtLWVudGl0eSB1c2VyLS0+PGcgY2xhc3M9ImVudGl0eSIgZGF0YS1lbnRpdHk9InVzZXIiIGRhdGEtc291cmNlLWxpbmU9IjE2IiBkYXRhLXVpZD0iZW50MDAwMiIgaWQ9ImVudGl0eV91c2VyIj48ZWxsaXBzZSBjeD0iNjkyIiBjeT0iNDkuOTg0NCIgZmlsbD0iI0YxRjFGMSIgcng9IjgiIHJ5PSI4IiBzdHlsZT0ic3Ryb2tlOiMxODE4MTg7c3Ryb2tlLXdpZHRoOjAuNTsiLz48cGF0aCBkPSJNNjkyLDU3Ljk4NDQgTDY5Miw4NC45ODQ0IE02NzksNjUuOTg0NCBMNzA1LDY1Ljk4NDQgTTY5Miw4NC45ODQ0IEw2NzksOTkuOTg0NCBNNjkyLDg0Ljk4NDQgTDcwNSw5OS45ODQ0IiBmaWxsPSJub25lIiBzdHlsZT0ic3Ryb2tlOiMxODE4MTg7c3Ryb2tlLXdpZHRoOjAuNTsiLz48dGV4dCBmaWxsPSIjMDAwMDAwIiBmb250LWZhbWlseT0iQXJpYWwiIGZvbnQtc2l6ZT0iMTQiIGxlbmd0aEFkanVzdD0ic3BhY2luZyIgdGV4dExlbmd0aD0iODQiIHg9IjY1MCIgeT0iMTE0LjcxODgiPiYjMTA1NTsmIzEwODY7JiMxMDgzOyYjMTEwMDsmIzEwNzk7JiMxMDg2OyYjMTA3NDsmIzEwNzI7JiMxMDkwOyYjMTA3NzsmIzEwODM7JiMxMTAwOzwvdGV4dD48L2c+PCEtLWxpbmsgdXNlciB0byBVSSA/Pz8/Pz8tLT48ZyBjbGFzcz0ibGluayIgZGF0YS1lbnRpdHktMT0idXNlciIgZGF0YS1lbnRpdHktMj0iVUkgJiMxMDg0OyYjMTA4NjsmIzEwNzY7JiMxMDkxOyYjMTA4MzsmIzExMDA7IiBkYXRhLXNvdXJjZS1saW5lPSI0MCIgZGF0YS11aWQ9ImxuazE3IiBpZD0ibGlua191c2VyX1VJICYjMTA4NDsmIzEwODY7JiMxMDc2OyYjMTA5MTsmIzEwODM7JiMxMTAwOyI+PHBhdGggZD0iTTY5MiwxMTYuNjc0NCBDNjkyLDEzNi43NzQ0IDY5MiwxNTQuNzE0NCA2OTIsMTcwLjM1NDQiIGZpbGw9Im5vbmUiIGlkPSJ1c2VyLXRvLVVJICYjMTA4NDsmIzEwODY7JiMxMDc2OyYjMTA5MTsmIzEwODM7JiMxMTAwOyIgc3R5bGU9InN0cm9rZTojMTgxODE4O3N0cm9rZS13aWR0aDoxOyIvPjxwb2x5Z29uIGZpbGw9IiMxODE4MTgiIHBvaW50cz0iNjkyLDE3Ni4zNTQ0LDY5NiwxNjcuMzU0NCw2OTIsMTcxLjM1NDQsNjg4LDE2Ny4zNTQ0LDY5MiwxNzYuMzU0NCIgc3R5bGU9InN0cm9rZTojMTgxODE4O3N0cm9rZS13aWR0aDoxOyIvPjwvZz48IS0tbGluayBVSSA/Pz8/Pz8gdG8gPz8/Pz8/ID8/Pz8/PyA/Pz8/Pz8tLT48ZyBjbGFzcz0ibGluayIgZGF0YS1lbnRpdHktMT0iVUkgJiMxMDg0OyYjMTA4NjsmIzEwNzY7JiMxMDkxOyYjMTA4MzsmIzExMDA7IiBkYXRhLWVudGl0eS0yPSImIzEwNTI7JiMxMDg2OyYjMTA3NjsmIzEwOTE7JiMxMDgzOyYjMTEwMDsgJiMxMDc0OyYjMTA5OTsmIzEwNzM7JiMxMDg2OyYjMTA4ODsmIzEwNzI7ICYjMTA4NDsmIzEwNzc7JiMxMDkwOyYjMTA4NjsmIzEwNzY7JiMxMDcyOyIgZGF0YS1zb3VyY2UtbGluZT0iNDEiIGRhdGEtdWlkPSJsbmsxOCIgaWQ9ImxpbmtfVUkgJiMxMDg0OyYjMTA4NjsmIzEwNzY7JiMxMDkxOyYjMTA4MzsmIzExMDA7XyYjMTA1MjsmIzEwODY7JiMxMDc2OyYjMTA5MTsmIzEwODM7JiMxMTAwOyAmIzEwNzQ7JiMxMDk5OyYjMTA3MzsmIzEwODY7JiMxMDg4OyYjMTA3MjsgJiMxMDg0OyYjMTA3NzsmIzEwOTA7JiMxMDg2OyYjMTA3NjsmIzEwNzI7Ij48cGF0aCBkPSJNNjY1Ljc1LDIxMS41NDQ0IEM2MzQuMjgsMjMxLjQwNDQgNTg2LjkyNDUsMjYxLjI4MjggNTU1LjQxNDUsMjgxLjE2MjgiIGZpbGw9Im5vbmUiIGlkPSJVSSAmIzEwODQ7JiMxMDg2OyYjMTA3NjsmIzEwOTE7JiMxMDgzOyYjMTEwMDstdG8tJiMxMDUyOyYjMTA4NjsmIzEwNzY7JiMxMDkxOyYjMTA4MzsmIzExMDA7ICYjMTA3NDsmIzEwOTk7JiMxMDczOyYjMTA4NjsmIzEwODg7JiMxMDcyOyAmIzEwODQ7JiMxMDc3OyYjMTA5MDsmIzEwODY7JiMxMDc2OyYjMTA3MjsiIHN0eWxlPSJzdHJva2U6IzE4MTgxODtzdHJva2Utd2lkdGg6MTsiLz48cG9seWdvbiBmaWxsPSIjMTgxODE4IiBwb2ludHM9IjU1MC4zNCwyODQuMzY0NCw1NjAuMDg2MSwyODIuOTQ1LDU1NC41Njg3LDI4MS42OTY0LDU1NS44MTczLDI3Ni4xNzkxLDU1MC4zNCwyODQuMzY0NCIgc3R5bGU9InN0cm9rZTojMTgxODE4O3N0cm9rZS13aWR0aDoxOyIvPjwvZz48IS0tbGluayA/Pz8/Pz8gPz8/Pz8/ID8/Pz8/PyB0byA/Pz8/Pz8gPz8/Pz8/PyA/Pz8/Pz8/Pz8/Py0tPjxnIGNsYXNzPSJsaW5rIiBkYXRhLWVudGl0eS0xPSImIzEwNTI7JiMxMDg2OyYjMTA3NjsmIzEwOTE7JiMxMDgzOyYjMTEwMDsgJiMxMDc0OyYjMTA5OTsmIzEwNzM7JiMxMDg2OyYjMTA4ODsmIzEwNzI7ICYjMTA4NDsmIzEwNzc7JiMxMDkwOyYjMTA4NjsmIzEwNzY7JiMxMDcyOyIgZGF0YS1lbnRpdHktMj0iJiMxMDUyOyYjMTA4NjsmIzEwNzY7JiMxMDkxOyYjMTA4MzsmIzExMDA7ICYjMTA3OTsmIzEwNzI7JiMxMDg3OyYjMTA5MTsmIzEwODk7JiMxMDgyOyYjMTA3MjsgJiMxMDg2OyYjMTA4NzsmIzEwOTA7JiMxMDgwOyYjMTA4NDsmIzEwODA7JiMxMDc5OyYjMTA3MjsmIzEwOTQ7JiMxMDgwOyYjMTA4MDsiIGRhdGEtc291cmNlLWxpbmU9IjQyIiBkYXRhLXVpZD0ibG5rMTkiIGlkPSJsaW5rXyYjMTA1MjsmIzEwODY7JiMxMDc2OyYjMTA5MTsmIzEwODM7JiMxMTAwOyAmIzEwNzQ7JiMxMDk5OyYjMTA3MzsmIzEwODY7JiMxMDg4OyYjMTA3MjsgJiMxMDg0OyYjMTA3NzsmIzEwOTA7JiMxMDg2OyYjMTA3NjsmIzEwNzI7XyYjMTA1MjsmIzEwODY7JiMxMDc2OyYjMTA5MTsmIzEwODM7JiMxMTAwOyAmIzEwNzk7JiMxMDcyOyYjMTA4NzsmIzEwOTE7JiMxMDg5OyYjMTA4MjsmIzEwNzI7ICYjMTA4NjsmIzEwODc7JiMxMDkwOyYjMTA4MDsmIzEwODQ7JiMxMDgwOyYjMTA3OTsmIzEwNzI7JiMxMDk0OyYjMTA4MDsmIzEwODA7Ij48cGF0aCBkPSJNNTIyLjIxLDMxOS42MTQ0IEM1MjAuNCwzMzYuNDM0NCA1MTguMjU5NywzNTYuMzM4NiA1MTYuNDQ5NywzNzMuMjE4NiIgZmlsbD0ibm9uZSIgaWQ9IiYjMTA1MjsmIzEwODY7JiMxMDc2OyYjMTA5MTsmIzEwODM7JiMxMTAwOyAmIzEwNzQ7JiMxMDk5OyYjMTA3MzsmIzEwODY7JiMxMDg4OyYjMTA3MjsgJiMxMDg0OyYjMTA3NzsmIzEwOTA7JiMxMDg2OyYjMTA3NjsmIzEwNzI7LXRvLSYjMTA1MjsmIzEwODY7JiMxMDc2OyYjMTA5MTsmIzEwODM7JiMxMTAwOyAmIzEwNzk7JiMxMDcyOyYjMTA4NzsmIzEwOTE7JiMxMDg5OyYjMTA4MjsmIzEwNzI7ICYjMTA4NjsmIzEwODc7JiMxMDkwOyYjMTA4MDsmIzEwODQ7JiMxMDgwOyYjMTA3OTsmIzEwNzI7JiMxMDk0OyYjMTA4MDsmIzEwODA7IiBzdHlsZT0ic3Ryb2tlOiMxODE4MTg7c3Ryb2tlLXdpZHRoOjE7Ii8+PHBvbHlnb24gZmlsbD0iIzE4MTgxOCIgcG9pbnRzPSI1MTUuODEsMzc5LjE4NDQsNTIwLjc0NjcsMzcwLjY2MjEsNTE2LjM0MzEsMzc0LjIxMjksNTEyLjc5MjMsMzY5LjgwOTIsNTE1LjgxLDM3OS4xODQ0IiBzdHlsZT0ic3Ryb2tlOiMxODE4MTg7c3Ryb2tlLXdpZHRoOjE7Ii8+PC9nPjwhLS1saW5rID8/Pz8/PyA/Pz8/Pz8/ID8/Pz8/Pz8/Pz8/IHRvID8/Pz8/ID8/Pz8/Pz8tLT48ZyBjbGFzcz0ibGluayIgZGF0YS1lbnRpdHktMT0iJiMxMDUyOyYjMTA4NjsmIzEwNzY7JiMxMDkxOyYjMTA4MzsmIzExMDA7ICYjMTA3OTsmIzEwNzI7JiMxMDg3OyYjMTA5MTsmIzEwODk7JiMxMDgyOyYjMTA3MjsgJiMxMDg2OyYjMTA4NzsmIzEwOTA7JiMxMDgwOyYjMTA4NDsmIzEwODA7JiMxMDc5OyYjMTA3MjsmIzEwOTQ7JiMxMDgwOyYjMTA4MDsiIGRhdGEtZW50aXR5LTI9IiYjMTA1MjsmIzEwNzc7JiMxMDkwOyYjMTA4NjsmIzEwNzY7ICYjMTA1MzsmIzExMDA7JiMxMTAyOyYjMTA5MDsmIzEwODY7JiMxMDg1OyYjMTA3MjsiIGRhdGEtc291cmNlLWxpbmU9IjQzIiBkYXRhLXVpZD0ibG5rMjAiIGlkPSJsaW5rXyYjMTA1MjsmIzEwODY7JiMxMDc2OyYjMTA5MTsmIzEwODM7JiMxMTAwOyAmIzEwNzk7JiMxMDcyOyYjMTA4NzsmIzEwOTE7JiMxMDg5OyYjMTA4MjsmIzEwNzI7ICYjMTA4NjsmIzEwODc7JiMxMDkwOyYjMTA4MDsmIzEwODQ7JiMxMDgwOyYjMTA3OTsmIzEwNzI7JiMxMDk0OyYjMTA4MDsmIzEwODA7XyYjMTA1MjsmIzEwNzc7JiMxMDkwOyYjMTA4NjsmIzEwNzY7ICYjMTA1MzsmIzExMDA7JiMxMTAyOyYjMTA5MDsmIzEwODY7JiMxMDg1OyYjMTA3MjsiPjxwYXRoIGQ9Ik01OTQuMTMsNDE0LjU3NDQgQzYyMi40OCw0MjIuMTU0NCA2NTQuMDIsNDMyLjYxNDQgNjgxLDQ0Ni40ODQ0IEM3MDEuOTUsNDU3LjI1NDQgNzE4LjMxODcsNDcwLjM5OTIgNzMyLjMxODcsNDgzLjE3OTIiIGZpbGw9Im5vbmUiIGlkPSImIzEwNTI7JiMxMDg2OyYjMTA3NjsmIzEwOTE7JiMxMDgzOyYjMTEwMDsgJiMxMDc5OyYjMTA3MjsmIzEwODc7JiMxMDkxOyYjMTA4OTsmIzEwODI7JiMxMDcyOyAmIzEwODY7JiMxMDg3OyYjMTA5MDsmIzEwODA7JiMxMDg0OyYjMTA4MDsmIzEwNzk7JiMxMDcyOyYjMTA5NDsmIzEwODA7JiMxMDgwOy10by0mIzEwNTI7JiMxMDc3OyYjMTA5MDsmIzEwODY7JiMxMDc2OyAmIzEwNTM7JiMxMTAwOyYjMTEwMjsmIzEwOTA7JiMxMDg2OyYjMTA4NTsmIzEwNzI7IiBzdHlsZT0ic3Ryb2tlOiMxODE4MTg7c3Ryb2tlLXdpZHRoOjE7Ii8+PHBvbHlnb24gZmlsbD0iIzE4MTgxOCIgcG9pbnRzPSI3MzYuNzUsNDg3LjIyNDQsNzMyLjc5OTgsNDc4LjIwMjQsNzMzLjA1NzIsNDgzLjg1MzQsNzI3LjQwNjIsNDg0LjExMDgsNzM2Ljc1LDQ4Ny4yMjQ0IiBzdHlsZT0ic3Ryb2tlOiMxODE4MTg7c3Ryb2tlLXdpZHRoOjE7Ii8+PC9nPjwhLS1saW5rID8/Pz8/PyA/Pz8/Pz8/ID8/Pz8/Pz8/Pz8/IHRvID8/Pz8/ID8/Pz8/Pz8tLT48ZyBjbGFzcz0ibGluayIgZGF0YS1lbnRpdHktMT0iJiMxMDUyOyYjMTA4NjsmIzEwNzY7JiMxMDkxOyYjMTA4MzsmIzExMDA7ICYjMTA3OTsmIzEwNzI7JiMxMDg3OyYjMTA5MTsmIzEwODk7JiMxMDgyOyYjMTA3MjsgJiMxMDg2OyYjMTA4NzsmIzEwOTA7JiMxMDgwOyYjMTA4NDsmIzEwODA7JiMxMDc5OyYjMTA3MjsmIzEwOTQ7JiMxMDgwOyYjMTA4MDsiIGRhdGEtZW50aXR5LTI9IiYjMTA1MjsmIzEwNzc7JiMxMDkwOyYjMTA4NjsmIzEwNzY7ICYjMTA4OTsmIzEwNzc7JiMxMDgyOyYjMTA5MTsmIzEwOTc7JiMxMDgwOyYjMTA5MzsiIGRhdGEtc291cmNlLWxpbmU9IjQ0IiBkYXRhLXVpZD0ibG5rMjEiIGlkPSJsaW5rXyYjMTA1MjsmIzEwODY7JiMxMDc2OyYjMTA5MTsmIzEwODM7JiMxMTAwOyAmIzEwNzk7JiMxMDcyOyYjMTA4NzsmIzEwOTE7JiMxMDg5OyYjMTA4MjsmIzEwNzI7ICYjMTA4NjsmIzEwODc7JiMxMDkwOyYjMTA4MDsmIzEwODQ7JiMxMDgwOyYjMTA3OTsmIzEwNzI7JiMxMDk0OyYjMTA4MDsmIzEwODA7XyYjMTA1MjsmIzEwNzc7JiMxMDkwOyYjMTA4NjsmIzEwNzY7ICYjMTA4OTsmIzEwNzc7JiMxMDgyOyYjMTA5MTsmIzEwOTc7JiMxMDgwOyYjMTA5MzsiPjxwYXRoIGQ9Ik01MjguNjksNDE0LjU0NDQgQzU0Ni4yNCw0MzQuMzQ0NCA1NzEuNDc4Nyw0NjIuNzk1NiA1ODkuMTI4Nyw0ODIuNjk1NiIgZmlsbD0ibm9uZSIgaWQ9IiYjMTA1MjsmIzEwODY7JiMxMDc2OyYjMTA5MTsmIzEwODM7JiMxMTAwOyAmIzEwNzk7JiMxMDcyOyYjMTA4NzsmIzEwOTE7JiMxMDg5OyYjMTA4MjsmIzEwNzI7ICYjMTA4NjsmIzEwODc7JiMxMDkwOyYjMTA4MDsmIzEwODQ7JiMxMDgwOyYjMTA3OTsmIzEwNzI7JiMxMDk0OyYjMTA4MDsmIzEwODA7LXRvLSYjMTA1MjsmIzEwNzc7JiMxMDkwOyYjMTA4NjsmIzEwNzY7ICYjMTA4OTsmIzEwNzc7JiMxMDgyOyYjMTA5MTsmIzEwOTc7JiMxMDgwOyYjMTA5MzsiIHN0eWxlPSJzdHJva2U6IzE4MTgxODtzdHJva2Utd2lkdGg6MTsiLz48cG9seWdvbiBmaWxsPSIjMTgxODE4IiBwb2ludHM9IjU5My4xMSw0ODcuMTg0NCw1OTAuMTMwNiw0NzcuNzk3LDU4OS43OTIzLDQ4My40NDM3LDU4NC4xNDU1LDQ4My4xMDUzLDU5My4xMSw0ODcuMTg0NCIgc3R5bGU9InN0cm9rZTojMTgxODE4O3N0cm9rZS13aWR0aDoxOyIvPjwvZz48IS0tbGluayA/Pz8/Pz8gPz8/Pz8/PyA/Pz8/Pz8/Pz8/PyB0byA/Pz8/PyA/Pz8/Pz8/PyA/Pz8/Pz8/LS0+PGcgY2xhc3M9ImxpbmsiIGRhdGEtZW50aXR5LTE9IiYjMTA1MjsmIzEwODY7JiMxMDc2OyYjMTA5MTsmIzEwODM7JiMxMTAwOyAmIzEwNzk7JiMxMDcyOyYjMTA4NzsmIzEwOTE7JiMxMDg5OyYjMTA4MjsmIzEwNzI7ICYjMTA4NjsmIzEwODc7JiMxMDkwOyYjMTA4MDsmIzEwODQ7JiMxMDgwOyYjMTA3OTsmIzEwNzI7JiMxMDk0OyYjMTA4MDsmIzEwODA7IiBkYXRhLWVudGl0eS0yPSImIzEwNTI7JiMxMDc3OyYjMTA5MDsmIzEwODY7JiMxMDc2OyAmIzEwNzk7JiMxMDg2OyYjMTA4MzsmIzEwODY7JiMxMDkwOyYjMTA4NjsmIzEwNzU7JiMxMDg2OyAmIzEwODk7JiMxMDc3OyYjMTA5NTsmIzEwNzc7JiMxMDg1OyYjMTA4MDsmIzExMDM7IiBkYXRhLXNvdXJjZS1saW5lPSI0NSIgZGF0YS11aWQ9ImxuazIyIiBpZD0ibGlua18mIzEwNTI7JiMxMDg2OyYjMTA3NjsmIzEwOTE7JiMxMDgzOyYjMTEwMDsgJiMxMDc5OyYjMTA3MjsmIzEwODc7JiMxMDkxOyYjMTA4OTsmIzEwODI7JiMxMDcyOyAmIzEwODY7JiMxMDg3OyYjMTA5MDsmIzEwODA7JiMxMDg0OyYjMTA4MDsmIzEwNzk7JiMxMDcyOyYjMTA5NDsmIzEwODA7JiMxMDgwO18mIzEwNTI7JiMxMDc3OyYjMTA5MDsmIzEwODY7JiMxMDc2OyAmIzEwNzk7JiMxMDg2OyYjMTA4MzsmIzEwODY7JiMxMDkwOyYjMTA4NjsmIzEwNzU7JiMxMDg2OyAmIzEwODk7JiMxMDc3OyYjMTA5NTsmIzEwNzc7JiMxMDg1OyYjMTA4MDsmIzExMDM7Ij48cGF0aCBkPSJNNTAwLjg4LDQxNC41NDQ0IEM0ODUuMTksNDM0LjM0NDQgNDYyLjgwNjUsNDYyLjU4MTkgNDQ3LjAzNjUsNDgyLjQ4MTkiIGZpbGw9Im5vbmUiIGlkPSImIzEwNTI7JiMxMDg2OyYjMTA3NjsmIzEwOTE7JiMxMDgzOyYjMTEwMDsgJiMxMDc5OyYjMTA3MjsmIzEwODc7JiMxMDkxOyYjMTA4OTsmIzEwODI7JiMxMDcyOyAmIzEwODY7JiMxMDg3OyYjMTA5MDsmIzEwODA7JiMxMDg0OyYjMTA4MDsmIzEwNzk7JiMxMDcyOyYjMTA5NDsmIzEwODA7JiMxMDgwOy10by0mIzEwNTI7JiMxMDc3OyYjMTA5MDsmIzEwODY7JiMxMDc2OyAmIzEwNzk7JiMxMDg2OyYjMTA4MzsmIzEwODY7JiMxMDkwOyYjMTA4NjsmIzEwNzU7JiMxMDg2OyAmIzEwODk7JiMxMDc3OyYjMTA5NTsmIzEwNzc7JiMxMDg1OyYjMTA4MDsmIzExMDM7IiBzdHlsZT0ic3Ryb2tlOiMxODE4MTg7c3Ryb2tlLXdpZHRoOjE7Ii8+PHBvbHlnb24gZmlsbD0iIzE4MTgxOCIgcG9pbnRzPSI0NDMuMzEsNDg3LjE4NDQsNDUyLjAzNDcsNDgyLjYxNSw0NDYuNDE1NCw0ODMuMjY1Nyw0NDUuNzY0OCw0NzcuNjQ2Myw0NDMuMzEsNDg3LjE4NDQiIHN0eWxlPSJzdHJva2U6IzE4MTgxODtzdHJva2Utd2lkdGg6MTsiLz48L2c+PCEtLWxpbmsgPz8/Pz8/ID8/Pz8/Pz8gPz8/Pz8/Pz8/Pz8gdG8gPz8/Pz8gPz8/Pz8/Pz8/LS0+PGcgY2xhc3M9ImxpbmsiIGRhdGEtZW50aXR5LTE9IiYjMTA1MjsmIzEwODY7JiMxMDc2OyYjMTA5MTsmIzEwODM7JiMxMTAwOyAmIzEwNzk7JiMxMDcyOyYjMTA4NzsmIzEwOTE7JiMxMDg5OyYjMTA4MjsmIzEwNzI7ICYjMTA4NjsmIzEwODc7JiMxMDkwOyYjMTA4MDsmIzEwODQ7JiMxMDgwOyYjMTA3OTsmIzEwNzI7JiMxMDk0OyYjMTA4MDsmIzEwODA7IiBkYXRhLWVudGl0eS0yPSImIzEwNTI7JiMxMDc3OyYjMTA5MDsmIzEwODY7JiMxMDc2OyAmIzEwNzY7JiMxMDgwOyYjMTA5MzsmIzEwODY7JiMxMDkwOyYjMTA4NjsmIzEwODQ7JiMxMDgwOyYjMTA4MDsiIGRhdGEtc291cmNlLWxpbmU9IjQ2IiBkYXRhLXVpZD0ibG5rMjMiIGlkPSJsaW5rXyYjMTA1MjsmIzEwODY7JiMxMDc2OyYjMTA5MTsmIzEwODM7JiMxMTAwOyAmIzEwNzk7JiMxMDcyOyYjMTA4NzsmIzEwOTE7JiMxMDg5OyYjMTA4MjsmIzEwNzI7ICYjMTA4NjsmIzEwODc7JiMxMDkwOyYjMTA4MDsmIzEwODQ7JiMxMDgwOyYjMTA3OTsmIzEwNzI7JiMxMDk0OyYjMTA4MDsmIzEwODA7XyYjMTA1MjsmIzEwNzc7JiMxMDkwOyYjMTA4NjsmIzEwNzY7ICYjMTA3NjsmIzEwODA7JiMxMDkzOyYjMTA4NjsmIzEwOTA7JiMxMDg2OyYjMTA4NDsmIzEwODA7JiMxMDgwOyI+PHBhdGggZD0iTTQyMi4yNyw0MTQuNTg0NCBDMzkwLjg4LDQyMi4wOTQ0IDM1Ni4xMSw0MzIuNDk0NCAzMjYsNDQ2LjQ4NDQgQzMwMy4wMSw0NTcuMTY0NCAyODQuMzQ4MSw0NzAuNzI4IDI2OC42NzgxLDQ4My41ODgiIGZpbGw9Im5vbmUiIGlkPSImIzEwNTI7JiMxMDg2OyYjMTA3NjsmIzEwOTE7JiMxMDgzOyYjMTEwMDsgJiMxMDc5OyYjMTA3MjsmIzEwODc7JiMxMDkxOyYjMTA4OTsmIzEwODI7JiMxMDcyOyAmIzEwODY7JiMxMDg3OyYjMTA5MDsmIzEwODA7JiMxMDg0OyYjMTA4MDsmIzEwNzk7JiMxMDcyOyYjMTA5NDsmIzEwODA7JiMxMDgwOy10by0mIzEwNTI7JiMxMDc3OyYjMTA5MDsmIzEwODY7JiMxMDc2OyAmIzEwNzY7JiMxMDgwOyYjMTA5MzsmIzEwODY7JiMxMDkwOyYjMTA4NjsmIzEwODQ7JiMxMDgwOyYjMTA4MDsiIHN0eWxlPSJzdHJva2U6IzE4MTgxODtzdHJva2Utd2lkdGg6MTsiLz48cG9seWdvbiBmaWxsPSIjMTgxODE4IiBwb2ludHM9IjI2NC4wNCw0ODcuMzk0NCwyNzMuNTM0Nyw0ODQuNzc2OSwyNjcuOTA1MSw0ODQuMjIyNCwyNjguNDU5NSw0NzguNTkyOCwyNjQuMDQsNDg3LjM5NDQiIHN0eWxlPSJzdHJva2U6IzE4MTgxODtzdHJva2Utd2lkdGg6MTsiLz48L2c+PCEtLWxpbmsgPz8/Pz8/ID8/Pz8/Pz8gPz8/Pz8/Pz8/Pz8gdG8gPz8/Pz8/Pz8/ID8/Pz8/LS0+PGcgY2xhc3M9ImxpbmsiIGRhdGEtZW50aXR5LTE9IiYjMTA1MjsmIzEwODY7JiMxMDc2OyYjMTA5MTsmIzEwODM7JiMxMTAwOyAmIzEwNzk7JiMxMDcyOyYjMTA4NzsmIzEwOTE7JiMxMDg5OyYjMTA4MjsmIzEwNzI7ICYjMTA4NjsmIzEwODc7JiMxMDkwOyYjMTA4MDsmIzEwODQ7JiMxMDgwOyYjMTA3OTsmIzEwNzI7JiMxMDk0OyYjMTA4MDsmIzEwODA7IiBkYXRhLWVudGl0eS0yPSImIzEwNTU7JiMxMDcyOyYjMTA4OTsmIzEwODk7JiMxMDgwOyYjMTA3NDsmIzEwODU7JiMxMDk5OyYjMTA4MTsgJiMxMDg3OyYjMTA4NjsmIzEwODA7JiMxMDg5OyYjMTA4MjsiIGRhdGEtc291cmNlLWxpbmU9IjQ3IiBkYXRhLXVpZD0ibG5rMjQiIGlkPSJsaW5rXyYjMTA1MjsmIzEwODY7JiMxMDc2OyYjMTA5MTsmIzEwODM7JiMxMTAwOyAmIzEwNzk7JiMxMDcyOyYjMTA4NzsmIzEwOTE7JiMxMDg5OyYjMTA4MjsmIzEwNzI7ICYjMTA4NjsmIzEwODc7JiMxMDkwOyYjMTA4MDsmIzEwODQ7JiMxMDgwOyYjMTA3OTsmIzEwNzI7JiMxMDk0OyYjMTA4MDsmIzEwODA7XyYjMTA1NTsmIzEwNzI7JiMxMDg5OyYjMTA4OTsmIzEwODA7JiMxMDc0OyYjMTA4NTsmIzEwOTk7JiMxMDgxOyAmIzEwODc7JiMxMDg2OyYjMTA4MDsmIzEwODk7JiMxMDgyOyI+PHBhdGggZD0iTTQxMi45NCwzOTkuMjM0NCBDMzQxLjQzLDQwMy4xNDQ0IDI0NC41MSw0MTQuNjY0NCAxNjUsNDQ2LjQ4NDQgQzE0MS4xOCw0NTYuMDE0NCAxMjIuMzI1Niw0NzAuMTYzNiAxMDcuMDU1Niw0ODMuNTIzNiIgZmlsbD0ibm9uZSIgaWQ9IiYjMTA1MjsmIzEwODY7JiMxMDc2OyYjMTA5MTsmIzEwODM7JiMxMTAwOyAmIzEwNzk7JiMxMDcyOyYjMTA4NzsmIzEwOTE7JiMxMDg5OyYjMTA4MjsmIzEwNzI7ICYjMTA4NjsmIzEwODc7JiMxMDkwOyYjMTA4MDsmIzEwODQ7JiMxMDgwOyYjMTA3OTsmIzEwNzI7JiMxMDk0OyYjMTA4MDsmIzEwODA7LXRvLSYjMTA1NTsmIzEwNzI7JiMxMDg5OyYjMTA4OTsmIzEwODA7JiMxMDc0OyYjMTA4NTsmIzEwOTk7JiMxMDgxOyAmIzEwODc7JiMxMDg2OyYjMTA4MDsmIzEwODk7JiMxMDgyOyIgc3R5bGU9InN0cm9rZTojMTgxODE4O3N0cm9rZS13aWR0aDoxOyIvPjxwb2x5Z29uIGZpbGw9IiMxODE4MTgiIHBvaW50cz0iMTAyLjU0LDQ4Ny40NzQ0LDExMS45NDczLDQ4NC41NTg2LDEwNi4zMDMsNDg0LjE4MiwxMDYuNjc5Niw0NzguNTM3NywxMDIuNTQsNDg3LjQ3NDQiIHN0eWxlPSJzdHJva2U6IzE4MTgxODtzdHJva2Utd2lkdGg6MTsiLz48L2c+PCEtLWxpbmsgPz8/Pz8gPz8/Pz8/PyB0byA/Pz8/Pz8/Pz8/ID8/Pz8/Pz8tLT48ZyBjbGFzcz0ibGluayIgZGF0YS1lbnRpdHktMT0iJiMxMDUyOyYjMTA3NzsmIzEwOTA7JiMxMDg2OyYjMTA3NjsgJiMxMDUzOyYjMTEwMDsmIzExMDI7JiMxMDkwOyYjMTA4NjsmIzEwODU7JiMxMDcyOyIgZGF0YS1lbnRpdHktMj0iJiMxMDU1OyYjMTA4NjsmIzEwODk7JiMxMDkwOyYjMTA4ODsmIzEwODY7JiMxMDc3OyYjMTA4NTsmIzEwODA7JiMxMDc3OyAmIzEwNzU7JiMxMDg4OyYjMTA3MjsmIzEwOTI7JiMxMDgwOyYjMTA4MjsmIzEwNzI7IiBkYXRhLXNvdXJjZS1saW5lPSI0OCIgZGF0YS11aWQ9ImxuazI1IiBpZD0ibGlua18mIzEwNTI7JiMxMDc3OyYjMTA5MDsmIzEwODY7JiMxMDc2OyAmIzEwNTM7JiMxMTAwOyYjMTEwMjsmIzEwOTA7JiMxMDg2OyYjMTA4NTsmIzEwNzI7XyYjMTA1NTsmIzEwODY7JiMxMDg5OyYjMTA5MDsmIzEwODg7JiMxMDg2OyYjMTA3NzsmIzEwODU7JiMxMDgwOyYjMTA3NzsgJiMxMDc1OyYjMTA4ODsmIzEwNzI7JiMxMDkyOyYjMTA4MDsmIzEwODI7JiMxMDcyOyI+PHBhdGggZD0iTTcyNiw1MjIuNTc0NCBDNzEyLjU4LDUzMC4yNDQ0IDY5Ni4xNyw1MzkuMjQ0NCA2ODEsNTQ2LjQ4NDQgQzY0Mi40LDU2NC45MTQ0IDYwMi43ODA0LDU4MC43ODc0IDU2OS45NDA0LDU5My4yMzc0IiBmaWxsPSJub25lIiBpZD0iJiMxMDUyOyYjMTA3NzsmIzEwOTA7JiMxMDg2OyYjMTA3NjsgJiMxMDUzOyYjMTEwMDsmIzExMDI7JiMxMDkwOyYjMTA4NjsmIzEwODU7JiMxMDcyOy10by0mIzEwNTU7JiMxMDg2OyYjMTA4OTsmIzEwOTA7JiMxMDg4OyYjMTA4NjsmIzEwNzc7JiMxMDg1OyYjMTA4MDsmIzEwNzc7ICYjMTA3NTsmIzEwODg7JiMxMDcyOyYjMTA5MjsmIzEwODA7JiMxMDgyOyYjMTA3MjsiIHN0eWxlPSJzdHJva2U6IzE4MTgxODtzdHJva2Utd2lkdGg6MTsiLz48cG9seWdvbiBmaWxsPSIjMTgxODE4IiBwb2ludHM9IjU2NC4zMyw1OTUuMzY0NCw1NzQuMTYzNSw1OTUuOTE0Miw1NjkuMDA1Myw1OTMuNTkxOSw1NzEuMzI3Niw1ODguNDMzNyw1NjQuMzMsNTk1LjM2NDQiIHN0eWxlPSJzdHJva2U6IzE4MTgxODtzdHJva2Utd2lkdGg6MTsiLz48L2c+PCEtLWxpbmsgPz8/Pz8gPz8/Pz8/PyB0byA/Pz8/Pz8/Pz8/ID8/Pz8/Pz8tLT48ZyBjbGFzcz0ibGluayIgZGF0YS1lbnRpdHktMT0iJiMxMDUyOyYjMTA3NzsmIzEwOTA7JiMxMDg2OyYjMTA3NjsgJiMxMDg5OyYjMTA3NzsmIzEwODI7JiMxMDkxOyYjMTA5NzsmIzEwODA7JiMxMDkzOyIgZGF0YS1lbnRpdHktMj0iJiMxMDU1OyYjMTA4NjsmIzEwODk7JiMxMDkwOyYjMTA4ODsmIzEwODY7JiMxMDc3OyYjMTA4NTsmIzEwODA7JiMxMDc3OyAmIzEwNzU7JiMxMDg4OyYjMTA3MjsmIzEwOTI7JiMxMDgwOyYjMTA4MjsmIzEwNzI7IiBkYXRhLXNvdXJjZS1saW5lPSI0OSIgZGF0YS11aWQ9ImxuazI2IiBpZD0ibGlua18mIzEwNTI7JiMxMDc3OyYjMTA5MDsmIzEwODY7JiMxMDc2OyAmIzEwODk7JiMxMDc3OyYjMTA4MjsmIzEwOTE7JiMxMDk3OyYjMTA4MDsmIzEwOTM7XyYjMTA1NTsmIzEwODY7JiMxMDg5OyYjMTA5MDsmIzEwODg7JiMxMDg2OyYjMTA3NzsmIzEwODU7JiMxMDgwOyYjMTA3NzsgJiMxMDc1OyYjMTA4ODsmIzEwNzI7JiMxMDkyOyYjMTA4MDsmIzEwODI7JiMxMDcyOyI+PHBhdGggZD0iTTU5NC4wOSw1MjIuNTQ0NCBDNTc3LjQ3LDU0Mi4zNDQ0IDU1My42NjgzLDU3MC42ODk1IDUzNi45NTgzLDU5MC41ODk1IiBmaWxsPSJub25lIiBpZD0iJiMxMDUyOyYjMTA3NzsmIzEwOTA7JiMxMDg2OyYjMTA3NjsgJiMxMDg5OyYjMTA3NzsmIzEwODI7JiMxMDkxOyYjMTA5NzsmIzEwODA7JiMxMDkzOy10by0mIzEwNTU7JiMxMDg2OyYjMTA4OTsmIzEwOTA7JiMxMDg4OyYjMTA4NjsmIzEwNzc7JiMxMDg1OyYjMTA4MDsmIzEwNzc7ICYjMTA3NTsmIzEwODg7JiMxMDcyOyYjMTA5MjsmIzEwODA7JiMxMDgyOyYjMTA3MjsiIHN0eWxlPSJzdHJva2U6IzE4MTgxODtzdHJva2Utd2lkdGg6MTsiLz48cG9seWdvbiBmaWxsPSIjMTgxODE4IiBwb2ludHM9IjUzMy4xLDU5NS4xODQ0LDU0MS45NTA4LDU5MC44NjQyLDUzNi4zMTUzLDU5MS4zNTUzLDUzNS44MjQyLDU4NS43MTk4LDUzMy4xLDU5NS4xODQ0IiBzdHlsZT0ic3Ryb2tlOiMxODE4MTg7c3Ryb2tlLXdpZHRoOjE7Ii8+PC9nPjwhLS1saW5rID8/Pz8/ID8/Pz8/Pz8/ID8/Pz8/Pz8gdG8gPz8/Pz8/Pz8/PyA/Pz8/Pz8/LS0+PGcgY2xhc3M9ImxpbmsiIGRhdGEtZW50aXR5LTE9IiYjMTA1MjsmIzEwNzc7JiMxMDkwOyYjMTA4NjsmIzEwNzY7ICYjMTA3OTsmIzEwODY7JiMxMDgzOyYjMTA4NjsmIzEwOTA7JiMxMDg2OyYjMTA3NTsmIzEwODY7ICYjMTA4OTsmIzEwNzc7JiMxMDk1OyYjMTA3NzsmIzEwODU7JiMxMDgwOyYjMTEwMzsiIGRhdGEtZW50aXR5LTI9IiYjMTA1NTsmIzEwODY7JiMxMDg5OyYjMTA5MDsmIzEwODg7JiMxMDg2OyYjMTA3NzsmIzEwODU7JiMxMDgwOyYjMTA3NzsgJiMxMDc1OyYjMTA4ODsmIzEwNzI7JiMxMDkyOyYjMTA4MDsmIzEwODI7JiMxMDcyOyIgZGF0YS1zb3VyY2UtbGluZT0iNTAiIGRhdGEtdWlkPSJsbmsyNyIgaWQ9ImxpbmtfJiMxMDUyOyYjMTA3NzsmIzEwOTA7JiMxMDg2OyYjMTA3NjsgJiMxMDc5OyYjMTA4NjsmIzEwODM7JiMxMDg2OyYjMTA5MDsmIzEwODY7JiMxMDc1OyYjMTA4NjsgJiMxMDg5OyYjMTA3NzsmIzEwOTU7JiMxMDc3OyYjMTA4NTsmIzEwODA7JiMxMTAzO18mIzEwNTU7JiMxMDg2OyYjMTA4OTsmIzEwOTA7JiMxMDg4OyYjMTA4NjsmIzEwNzc7JiMxMDg1OyYjMTA4MDsmIzEwNzc7ICYjMTA3NTsmIzEwODg7JiMxMDcyOyYjMTA5MjsmIzEwODA7JiMxMDgyOyYjMTA3MjsiPjxwYXRoIGQ9Ik00NDMuOTEsNTIyLjU0NDQgQzQ2MC41Myw1NDIuMzQ0NCA0ODQuMzMxNyw1NzAuNjg5NSA1MDEuMDQxNyw1OTAuNTg5NSIgZmlsbD0ibm9uZSIgaWQ9IiYjMTA1MjsmIzEwNzc7JiMxMDkwOyYjMTA4NjsmIzEwNzY7ICYjMTA3OTsmIzEwODY7JiMxMDgzOyYjMTA4NjsmIzEwOTA7JiMxMDg2OyYjMTA3NTsmIzEwODY7ICYjMTA4OTsmIzEwNzc7JiMxMDk1OyYjMTA3NzsmIzEwODU7JiMxMDgwOyYjMTEwMzstdG8tJiMxMDU1OyYjMTA4NjsmIzEwODk7JiMxMDkwOyYjMTA4ODsmIzEwODY7JiMxMDc3OyYjMTA4NTsmIzEwODA7JiMxMDc3OyAmIzEwNzU7JiMxMDg4OyYjMTA3MjsmIzEwOTI7JiMxMDgwOyYjMTA4MjsmIzEwNzI7IiBzdHlsZT0ic3Ryb2tlOiMxODE4MTg7c3Ryb2tlLXdpZHRoOjE7Ii8+PHBvbHlnb24gZmlsbD0iIzE4MTgxOCIgcG9pbnRzPSI1MDQuOSw1OTUuMTg0NCw1MDIuMTc1OCw1ODUuNzE5OCw1MDEuNjg0Nyw1OTEuMzU1Myw0OTYuMDQ5Miw1OTAuODY0Miw1MDQuOSw1OTUuMTg0NCIgc3R5bGU9InN0cm9rZTojMTgxODE4O3N0cm9rZS13aWR0aDoxOyIvPjwvZz48IS0tbGluayA/Pz8/PyA/Pz8/Pz8/Pz8gdG8gPz8/Pz8/Pz8/PyA/Pz8/Pz8/LS0+PGcgY2xhc3M9ImxpbmsiIGRhdGEtZW50aXR5LTE9IiYjMTA1MjsmIzEwNzc7JiMxMDkwOyYjMTA4NjsmIzEwNzY7ICYjMTA3NjsmIzEwODA7JiMxMDkzOyYjMTA4NjsmIzEwOTA7JiMxMDg2OyYjMTA4NDsmIzEwODA7JiMxMDgwOyIgZGF0YS1lbnRpdHktMj0iJiMxMDU1OyYjMTA4NjsmIzEwODk7JiMxMDkwOyYjMTA4ODsmIzEwODY7JiMxMDc3OyYjMTA4NTsmIzEwODA7JiMxMDc3OyAmIzEwNzU7JiMxMDg4OyYjMTA3MjsmIzEwOTI7JiMxMDgwOyYjMTA4MjsmIzEwNzI7IiBkYXRhLXNvdXJjZS1saW5lPSI1MSIgZGF0YS11aWQ9ImxuazI4IiBpZD0ibGlua18mIzEwNTI7JiMxMDc3OyYjMTA5MDsmIzEwODY7JiMxMDc2OyAmIzEwNzY7JiMxMDgwOyYjMTA5MzsmIzEwODY7JiMxMDkwOyYjMTA4NjsmIzEwODQ7JiMxMDgwOyYjMTA4MDtfJiMxMDU1OyYjMTA4NjsmIzEwODk7JiMxMDkwOyYjMTA4ODsmIzEwODY7JiMxMDc3OyYjMTA4NTsmIzEwODA7JiMxMDc3OyAmIzEwNzU7JiMxMDg4OyYjMTA3MjsmIzEwOTI7JiMxMDgwOyYjMTA4MjsmIzEwNzI7Ij48cGF0aCBkPSJNMjc1LjY5LDUyMi41NzQ0IEMyOTAuNjUsNTMwLjMzNDQgMzA5LjAyLDUzOS4zOTQ0IDMyNiw1NDYuNDg0NCBDMzcxLjU1LDU2NS40OTQ0IDQxOS4wNDQxLDU4MS40NDE3IDQ1OC4wNDQxLDU5My42NTE3IiBmaWxsPSJub25lIiBpZD0iJiMxMDUyOyYjMTA3NzsmIzEwOTA7JiMxMDg2OyYjMTA3NjsgJiMxMDc2OyYjMTA4MDsmIzEwOTM7JiMxMDg2OyYjMTA5MDsmIzEwODY7JiMxMDg0OyYjMTA4MDsmIzEwODA7LXRvLSYjMTA1NTsmIzEwODY7JiMxMDg5OyYjMTA5MDsmIzEwODg7JiMxMDg2OyYjMTA3NzsmIzEwODU7JiMxMDgwOyYjMTA3NzsgJiMxMDc1OyYjMTA4ODsmIzEwNzI7JiMxMDkyOyYjMTA4MDsmIzEwODI7JiMxMDcyOyIgc3R5bGU9InN0cm9rZTojMTgxODE4O3N0cm9rZS13aWR0aDoxOyIvPjxwb2x5Z29uIGZpbGw9IiMxODE4MTgiIHBvaW50cz0iNDYzLjc3LDU5NS40NDQ0LDQ1Ni4zNzYyLDU4OC45MzgxLDQ1OC45OTg0LDU5My45NTA1LDQ1My45ODYsNTk2LjU3MjcsNDYzLjc3LDU5NS40NDQ0IiBzdHlsZT0ic3Ryb2tlOiMxODE4MTg7c3Ryb2tlLXdpZHRoOjE7Ii8+PC9nPjwhLS1saW5rID8/Pz8/Pz8/PyA/Pz8/PyB0byA/Pz8/Pz8/Pz8/ID8/Pz8/Pz8tLT48ZyBjbGFzcz0ibGluayIgZGF0YS1lbnRpdHktMT0iJiMxMDU1OyYjMTA3MjsmIzEwODk7JiMxMDg5OyYjMTA4MDsmIzEwNzQ7JiMxMDg1OyYjMTA5OTsmIzEwODE7ICYjMTA4NzsmIzEwODY7JiMxMDgwOyYjMTA4OTsmIzEwODI7IiBkYXRhLWVudGl0eS0yPSImIzEwNTU7JiMxMDg2OyYjMTA4OTsmIzEwOTA7JiMxMDg4OyYjMTA4NjsmIzEwNzc7JiMxMDg1OyYjMTA4MDsmIzEwNzc7ICYjMTA3NTsmIzEwODg7JiMxMDcyOyYjMTA5MjsmIzEwODA7JiMxMDgyOyYjMTA3MjsiIGRhdGEtc291cmNlLWxpbmU9IjUyIiBkYXRhLXVpZD0ibG5rMjkiIGlkPSJsaW5rXyYjMTA1NTsmIzEwNzI7JiMxMDg5OyYjMTA4OTsmIzEwODA7JiMxMDc0OyYjMTA4NTsmIzEwOTk7JiMxMDgxOyAmIzEwODc7JiMxMDg2OyYjMTA4MDsmIzEwODk7JiMxMDgyO18mIzEwNTU7JiMxMDg2OyYjMTA4OTsmIzEwOTA7JiMxMDg4OyYjMTA4NjsmIzEwNzc7JiMxMDg1OyYjMTA4MDsmIzEwNzc7ICYjMTA3NTsmIzEwODg7JiMxMDcyOyYjMTA5MjsmIzEwODA7JiMxMDgyOyYjMTA3MjsiPjxwYXRoIGQ9Ik0xMTMuMDIsNTIyLjY2NDQgQzEyNy45OSw1MzAuOTI0NCAxNDcuMDEsNTQwLjQwNDQgMTY1LDU0Ni40ODQ0IEMyNTkuMyw1NzguMzQ0NCAzNjcuMzAyOCw1OTUuMTk4OCA0MzkuOTgyOCw2MDMuOTI4OCIgZmlsbD0ibm9uZSIgaWQ9IiYjMTA1NTsmIzEwNzI7JiMxMDg5OyYjMTA4OTsmIzEwODA7JiMxMDc0OyYjMTA4NTsmIzEwOTk7JiMxMDgxOyAmIzEwODc7JiMxMDg2OyYjMTA4MDsmIzEwODk7JiMxMDgyOy10by0mIzEwNTU7JiMxMDg2OyYjMTA4OTsmIzEwOTA7JiMxMDg4OyYjMTA4NjsmIzEwNzc7JiMxMDg1OyYjMTA4MDsmIzEwNzc7ICYjMTA3NTsmIzEwODg7JiMxMDcyOyYjMTA5MjsmIzEwODA7JiMxMDgyOyYjMTA3MjsiIHN0eWxlPSJzdHJva2U6IzE4MTgxODtzdHJva2Utd2lkdGg6MTsiLz48cG9seWdvbiBmaWxsPSIjMTgxODE4IiBwb2ludHM9IjQ0NS45NCw2MDQuNjQ0NCw0MzcuNDgxMyw1OTkuNTk5Niw0NDAuOTc1Nyw2MDQuMDQ4MSw0MzYuNTI3Miw2MDcuNTQyNSw0NDUuOTQsNjA0LjY0NDQiIHN0eWxlPSJzdHJva2U6IzE4MTgxODtzdHJva2Utd2lkdGg6MTsiLz48L2c+PCEtLWxpbmsgPz8/Pz8/Pz8/PyA/Pz8/Pz8/IHRvID8/Pz8/Pz8/Pz8/ID8/Pz8/Pz8gPz8/Pz8/Pz8tLT48ZyBjbGFzcz0ibGluayIgZGF0YS1lbnRpdHktMT0iJiMxMDU1OyYjMTA4NjsmIzEwODk7JiMxMDkwOyYjMTA4ODsmIzEwODY7JiMxMDc3OyYjMTA4NTsmIzEwODA7JiMxMDc3OyAmIzEwNzU7JiMxMDg4OyYjMTA3MjsmIzEwOTI7JiMxMDgwOyYjMTA4MjsmIzEwNzI7IiBkYXRhLWVudGl0eS0yPSImIzEwNTQ7JiMxMDkwOyYjMTA4NjsmIzEwNzM7JiMxMDg4OyYjMTA3MjsmIzEwNzg7JiMxMDc3OyYjMTA4NTsmIzEwODA7JiMxMDc3OyAmIzEwODA7JiMxMDg5OyYjMTA5MDsmIzEwODY7JiMxMDg4OyYjMTA4MDsmIzEwODA7ICYjMTA4MDsmIzEwOTA7JiMxMDc3OyYjMTA4ODsmIzEwNzI7JiMxMDk0OyYjMTA4MDsmIzEwODE7IiBkYXRhLXNvdXJjZS1saW5lPSI1MyIgZGF0YS11aWQ9ImxuazMwIiBpZD0ibGlua18mIzEwNTU7JiMxMDg2OyYjMTA4OTsmIzEwOTA7JiMxMDg4OyYjMTA4NjsmIzEwNzc7JiMxMDg1OyYjMTA4MDsmIzEwNzc7ICYjMTA3NTsmIzEwODg7JiMxMDcyOyYjMTA5MjsmIzEwODA7JiMxMDgyOyYjMTA3MjtfJiMxMDU0OyYjMTA5MDsmIzEwODY7JiMxMDczOyYjMTA4ODsmIzEwNzI7JiMxMDc4OyYjMTA3NzsmIzEwODU7JiMxMDgwOyYjMTA3NzsgJiMxMDgwOyYjMTA4OTsmIzEwOTA7JiMxMDg2OyYjMTA4ODsmIzEwODA7JiMxMDgwOyAmIzEwODA7JiMxMDkwOyYjMTA3NzsmIzEwODg7JiMxMDcyOyYjMTA5NDsmIzEwODA7JiMxMDgxOyI+PHBhdGggZD0iTTUyMi4yMiw2MzAuNjE0NCBDNTI1LjQ3LDY0Ny40MzQ0IDUyOS4zMzg5LDY2Ny40MTM5IDUzMi42MDg5LDY4NC4yOTM5IiBmaWxsPSJub25lIiBpZD0iJiMxMDU1OyYjMTA4NjsmIzEwODk7JiMxMDkwOyYjMTA4ODsmIzEwODY7JiMxMDc3OyYjMTA4NTsmIzEwODA7JiMxMDc3OyAmIzEwNzU7JiMxMDg4OyYjMTA3MjsmIzEwOTI7JiMxMDgwOyYjMTA4MjsmIzEwNzI7LXRvLSYjMTA1NDsmIzEwOTA7JiMxMDg2OyYjMTA3MzsmIzEwODg7JiMxMDcyOyYjMTA3ODsmIzEwNzc7JiMxMDg1OyYjMTA4MDsmIzEwNzc7ICYjMTA4MDsmIzEwODk7JiMxMDkwOyYjMTA4NjsmIzEwODg7JiMxMDgwOyYjMTA4MDsgJiMxMDgwOyYjMTA5MDsmIzEwNzc7JiMxMDg4OyYjMTA3MjsmIzEwOTQ7JiMxMDgwOyYjMTA4MTsiIHN0eWxlPSJzdHJva2U6IzE4MTgxODtzdHJva2Utd2lkdGg6MTsiLz48cG9seWdvbiBmaWxsPSIjMTgxODE4IiBwb2ludHM9IjUzMy43NSw2OTAuMTg0NCw1MzUuOTY1Myw2ODAuNTg3OSw1MzIuNzk5MSw2ODUuMjc1Niw1MjguMTExMyw2ODIuMTA5NCw1MzMuNzUsNjkwLjE4NDQiIHN0eWxlPSJzdHJva2U6IzE4MTgxODtzdHJva2Utd2lkdGg6MTsiLz48L2c+PCEtLWxpbmsgPz8/Pz8/Pz8/Pz8gPz8/Pz8/PyA/Pz8/Pz8/PyB0byBVSSA/Pz8/Pz8tLT48ZyBjbGFzcz0ibGluayIgZGF0YS1lbnRpdHktMT0iJiMxMDU0OyYjMTA5MDsmIzEwODY7JiMxMDczOyYjMTA4ODsmIzEwNzI7JiMxMDc4OyYjMTA3NzsmIzEwODU7JiMxMDgwOyYjMTA3NzsgJiMxMDgwOyYjMTA4OTsmIzEwOTA7JiMxMDg2OyYjMTA4ODsmIzEwODA7JiMxMDgwOyAmIzEwODA7JiMxMDkwOyYjMTA3NzsmIzEwODg7JiMxMDcyOyYjMTA5NDsmIzEwODA7JiMxMDgxOyIgZGF0YS1lbnRpdHktMj0iVUkgJiMxMDg0OyYjMTA4NjsmIzEwNzY7JiMxMDkxOyYjMTA4MzsmIzExMDA7IiBkYXRhLXNvdXJjZS1saW5lPSI1NCIgZGF0YS11aWQ9ImxuazMxIiBpZD0ibGlua18mIzEwNTQ7JiMxMDkwOyYjMTA4NjsmIzEwNzM7JiMxMDg4OyYjMTA3MjsmIzEwNzg7JiMxMDc3OyYjMTA4NTsmIzEwODA7JiMxMDc3OyAmIzEwODA7JiMxMDg5OyYjMTA5MDsmIzEwODY7JiMxMDg4OyYjMTA4MDsmIzEwODA7ICYjMTA4MDsmIzEwOTA7JiMxMDc3OyYjMTA4ODsmIzEwNzI7JiMxMDk0OyYjMTA4MDsmIzEwODE7X1VJICYjMTA4NDsmIzEwODY7JiMxMDc2OyYjMTA5MTsmIzEwODM7JiMxMTAwOyI+PHBhdGggZD0iTTYzMS4yOSw2OTAuNDM0NCBDNzI3LjU3LDY2Ny40ODQ0IDg2Myw2MTUuNjk0NCA4NjMsNTA1Ljk4NDQgQzg2MywzOTUuOTg0NCA4NjMsMzk1Ljk4NDQgODYzLDM5NS45ODQ0IEM4NjMsMzA5LjYyNDQgNzc1LjQwNjgsMjQ0LjU5NzkgNzI2LjUxNjgsMjE0LjY1NzkiIGZpbGw9Im5vbmUiIGlkPSImIzEwNTQ7JiMxMDkwOyYjMTA4NjsmIzEwNzM7JiMxMDg4OyYjMTA3MjsmIzEwNzg7JiMxMDc3OyYjMTA4NTsmIzEwODA7JiMxMDc3OyAmIzEwODA7JiMxMDg5OyYjMTA5MDsmIzEwODY7JiMxMDg4OyYjMTA4MDsmIzEwODA7ICYjMTA4MDsmIzEwOTA7JiMxMDc3OyYjMTA4ODsmIzEwNzI7JiMxMDk0OyYjMTA4MDsmIzEwODE7LXRvLVVJICYjMTA4NDsmIzEwODY7JiMxMDc2OyYjMTA5MTsmIzEwODM7JiMxMTAwOyIgc3R5bGU9InN0cm9rZTojMTgxODE4O3N0cm9rZS13aWR0aDoxOyIvPjxwb2x5Z29uIGZpbGw9IiMxODE4MTgiIHBvaW50cz0iNzIxLjQsMjExLjUyNDQsNzI2Ljk4NjIsMjE5LjYzNTgsNzI1LjY2NCwyMTQuMTM1Niw3MzEuMTY0MSwyMTIuODEzNCw3MjEuNCwyMTEuNTI0NCIgc3R5bGU9InN0cm9rZTojMTgxODE4O3N0cm9rZS13aWR0aDoxOyIvPjwvZz48IS0tU1JDPVtoTEpCUlhEMTRCcGxMeEh5WnZHV2syOEg5MkdFR0dZNFNYd3lZcEVBbE1Fam5tQTFhNkFSVzUwWVkzWG44RUowM3BabFRWcDhCX0p5NEpNcENOd2pyeVJzbUhmRkp0VHJKTk5EUWdjQjBWNkhzSkZ4Nzlpd05fQURnUGs2c1VDY3lJc01jRGxTdW9pU1Q5N210VkNna3A4aVlxWUtvMF9VWTZmSEZyNlhWWVBBMEpzQWYyWWNkeC1LeG1GUWszenE2MEx2QlM4MmtkX21ZM1BMdjBWSE9yTEs0TXFNSE54Tm5oMEs4YktEX0lJLWxJRHJXRllCOTFJNUdLR1J3bVd5NXh1bG1tOHptRnlqNlNmSWpSR2pWUnIzenpSanlQUHVEbmh3dzdiUWJLYWhVZ3NxTFkwZ0JIa2ZHaXlKVU9yTUVKeDFmVGxjYUEtbmRkN0pBT0R6WmFJNWdmS1d5aG1vdzhiMldEb1Z0Qk5kcUYwSmliZ2NiZER0ZWc0eHZidXo5VXUwd3k4cTc4dWJDSzN1dXdIa2ViQ3g0UGVsS3AzdXJtMjAtQ21TeTJkdGFhYnJxQnZrSnhjUG9vd3hIZmpSM0JaNkR4UW1YcXFUX0podXVTWHluWGdGaUppMmd0Rk5vSmdhT214SWtUcW44M3VzWC1RUnN0Skp3VkdwR1NCd2hNNi0wZGFfQXpGRDBLUHFNdDFuZlVQQnR2TVBmSFNNX0F3cWFybmxGRmk0RHd5MUNpTzRrajJyMVV5WkV4T2daT2RubW1lNUNQa1d5cXlvQzRZSDExdTJRWHN3elZmSjlKd3QwdURIT2dsXzk5RlZaa1FmU3lGTGUyZ3NHQ2E4RUFSYWZKZVdFdy1NZXNYVElNay1VWGtrRktwbnNxSGFhM2tsaC1QRGQ4T3lkX0tNQUhoZkVDczdBbUNVai10ZzZDem8tVWV3ZkpvQTlTNnB0cjM2TzRPbVBoLU9aNGFpV0pIQi1jTVc5eE4tUnhIQ1NIVDBjdmFyWEJkVzlzZEhta2RWaUJ5MF0tLT48L2c+PC9zdmc+;" vertex="1" parent="1">
            <mxGeometry x="-120" y="330" width="870" height="748" as="geometry" />
          </mxCell>
        </UserObject>
      </root>
    </mxGraphModel>
  </diagram>
</mxfile>
